# xmcd
#
# Track frame offsets: 
#        150
#        20183
#        34705
#        58758
#        72400
#        89853
#        106021
#        121875
#        135627
#
# Disc length: 2007 seconds
#
# Revision: 0
# Processed by: cddbd v1.5.2PL0 Copyright (c) Steve Scherf et al.
# Submitted via: ExactAudioCopyFreeDBPlugin 1.0
#
DISCID=8007d509
DTITLE=Various Artist - Shesim Men
DYEAR=2014
DGENRE=Hip-Hop
TTITLE0=Shesim Men  (feaat.Ghetto Ghetto )
TTITLE1=Veç Na (Ronela Ajati and Agona Amiga)
TTITLE2=High2 ( Babastars)
TTITLE3=Ato (2Ton.feat skivi
TTITLE4=Opeb Air  ( CHa Cha Darabuka ft. Dj CEi)
TTITLE5=FB ( Fjolla Morina)
TTITLE6=Love in Love  ( CHa Cha Darabuka ft. Dj CEi)
TTITLE7=Jetoje Jeten ( 2 TON)
TTITLE8=BEB (Ertola Koka FT. 2Ton)
EXTD=
EXTT0=
EXTT1=
EXTT2=
EXTT3=
EXTT4=
EXTT5=
EXTT6=
EXTT7=
EXTT8=
PLAYORDER=
